<svg enable-background="new 0 0 1200 1200" height="1200" viewBox="0 0 1200 1200" width="1200" xmlns="http://www.w3.org/2000/svg"><path d="m779.843 599.925c0 95.331-80.664 172.612-180.169 172.612-99.504 0-180.168-77.281-180.168-172.612 0-95.332 80.664-172.612 180.168-172.612 99.505-.001 180.169 77.281 180.169 172.612zm-179.843-359.404c-103.025.457-209.814 25.538-310.904 73.557-75.058 37.122-148.206 89.496-211.702 154.141-31.186 32.999-70.963 80.781-77.394 131.762.76 44.161 48.13 98.669 77.394 131.763 59.543 62.106 130.786 113.018 211.702 154.179 94.271 45.751 198.616 72.092 310.904 73.557 103.123-.464 209.888-25.834 310.866-73.557 75.058-37.122 148.243-89.534 211.74-154.179 31.185-32.999 70.962-80.782 77.394-131.763-.76-44.161-48.13-98.671-77.394-131.764-59.543-62.106-130.824-112.979-211.74-154.141-94.222-45.716-198.824-71.876-310.866-73.555zm-.076 89.248c156.119 0 282.675 120.994 282.675 270.251 0 149.256-126.556 270.25-282.675 270.25s-282.675-120.995-282.675-270.25c0-149.257 126.556-270.251 282.675-270.251z"/></svg>